HIERARCHY
ROOT Hips
{
	OFFSET -3.958830 18.904000 13.208200
	CHANNELS 6 Xposition Yposition Zposition Zrotation Yrotation Xrotation 
	JOINT LHipJoint
	{
		OFFSET 0.000000 0.000000 0.000000
		CHANNELS 3 Zrotation Yrotation Xrotation
		JOINT LeftUpLeg
		{
			OFFSET 1.800000 -1.400000 0.085000
			CHANNELS 3 Zrotation Yrotation Xrotation
			JOINT LeftLeg
			{
				OFFSET 2.215000 -6.000000 0.000000
				CHANNELS 3 Zrotation Yrotation Xrotation
				JOINT LeftFoot
				{
					OFFSET 2.500000 -6.900000 0.000000
					CHANNELS 3 Zrotation Yrotation Xrotation
					JOINT LeftToeBase
					{
						OFFSET 0.200000 -0.500000 1.950000
						CHANNELS 3 Zrotation Yrotation Xrotation
						End Site
						{
							OFFSET 0.000000 0.000000 0.000000
						}
					}
				}
			}
		}
	}
	JOINT RHipJoint
	{
		OFFSET 0.000000 0.000000 0.000000
		CHANNELS 3 Zrotation Yrotation Xrotation
		JOINT RightUpLeg
		{
			OFFSET -1.800000 -1.400000 0.085000
			CHANNELS 3 Zrotation Yrotation Xrotation
			JOINT RightLeg
			{
				OFFSET -2.215000 -6.000000 0.000000
				CHANNELS 3 Zrotation Yrotation Xrotation
				JOINT RightFoot
				{
					OFFSET -2.500000 -6.900000 0.000000
					CHANNELS 3 Zrotation Yrotation Xrotation
					JOINT RightToeBase
					{
						OFFSET -0.200000 -0.500000 1.950000
						CHANNELS 3 Zrotation Yrotation Xrotation
						End Site
						{
							OFFSET 0.000000 0.000000 0.000000
						}
					}
				}
			}
		}
	}
	JOINT LowerBack
	{
		OFFSET 0.000000 0.000000 0.000000
		CHANNELS 3 Zrotation Yrotation Xrotation
		JOINT Spine
		{
			OFFSET -0.087000 1.940000 -0.288900
			CHANNELS 3 Zrotation Yrotation Xrotation
			JOINT Spine1
			{
				OFFSET 0.000000 1.950000 0.060000
				CHANNELS 3 Zrotation Yrotation Xrotation
				JOINT Neck
				{
					OFFSET 0.000000 0.000000 0.000000
					CHANNELS 3 Zrotation Yrotation Xrotation
					JOINT Neck1
					{
						OFFSET 0.000000 1.600000 0.340000
						CHANNELS 3 Zrotation Yrotation Xrotation
						JOINT Head
						{
							OFFSET 0.000000 1.667000 -0.240000
							CHANNELS 3 Zrotation Yrotation Xrotation
							End Site
							{
								OFFSET 0.000000 0.000000 0.000000
							}
						}
					}
				}
				JOINT LeftShoulder
				{
					OFFSET 0.000000 0.000000 0.000000
					CHANNELS 3 Zrotation Yrotation Xrotation
					JOINT LeftArm
					{
						OFFSET 2.700000 1.550000 -0.730000
						CHANNELS 3 Zrotation Yrotation Xrotation
						JOINT LeftForeArm
						{
							OFFSET 5.450000 0.000000 0.000000
							CHANNELS 3 Zrotation Yrotation Xrotation
							JOINT LeftHand
							{
								OFFSET 3.450000 0.000000 0.000000
								CHANNELS 3 Zrotation Yrotation Xrotation
								JOINT LeftHandIndex1
								{
									OFFSET 0.750000 0.000000 0.000000
									CHANNELS 3 Zrotation Yrotation Xrotation
									End Site
									{
										OFFSET 0.000000 0.000000 0.000000
									}
								}
							}
						}
					}
				}
				JOINT RightShoulder
				{
					OFFSET 0.000000 0.000000 0.000000
					CHANNELS 3 Zrotation Yrotation Xrotation
					JOINT RightArm
					{
						OFFSET -2.700000 1.550000 -0.730000
						CHANNELS 3 Zrotation Yrotation Xrotation
						JOINT RightForeArm
						{
							OFFSET -5.450000 0.000000 0.000000
							CHANNELS 3 Zrotation Yrotation Xrotation
							JOINT RightHand
							{
								OFFSET -3.450000 0.000000 0.000000
								CHANNELS 3 Zrotation Yrotation Xrotation
								JOINT RightHandIndex1
								{
									OFFSET -0.750000 0.000000 0.000000
									CHANNELS 3 Zrotation Yrotation Xrotation
									End Site
									{
										OFFSET 0.000000 0.000000 0.000000
									}
								}
							}
						}
					}
				}
			}
		}
	}
}
MOTION
Frames: 9
Frame Time: 0.016667
-2.583040 17.728720 -3.321030 -4.882819 40.363360 5.215996 -15.818497 13.639877 3.898541 -7.273080 -3.656679 -27.205433 3.844016 2.353467 10.173703 -0.402759 1.938444 3.964964 -0.193530 -0.586760 0.068770 17.460083 -10.145062 3.677223 4.368418 2.645432 -13.397388 11.592715 -3.376672 2.765315 0.160295 -2.630780 3.680679 -0.383420 0.045670 0.073120 -2.346148 -3.294803 -8.687567 18.079608 0.068878 26.341073 -8.877710 13.165119 -20.426437 10.289492 1.695691 -13.823409 4.329446 -18.798354 23.320417 -10.570130 -12.485760 0.211990 -9.844116 20.915489 -1.027222 -63.461324 26.951525 -7.888193 -64.351350 -44.646835 24.481513 -3.592334 3.116423 0.239030 0.069340 -0.210860 -0.129130 -16.172005 -2.953048 10.705826 18.369552 0.606850 -5.678034 -45.915955 -13.376273 6.939506 3.196620 -1.648220 -0.145080 -0.101340 0.147110 -0.196080 
-2.581080 17.758850 -3.308500 -3.920529 40.610964 6.785363 -15.849406 13.653823 3.946873 -7.791495 -3.569928 -26.471653 3.061026 2.406257 8.079413 -0.443082 1.889995 3.993889 -0.179790 -0.569210 0.085060 17.435156 -10.122958 3.633352 4.669911 2.790127 -14.780409 10.231520 -3.209495 3.301380 0.206424 -2.445919 3.743060 -0.355230 0.042930 0.059410 -2.243561 -3.423489 -8.685754 16.965285 -0.109768 25.930659 -7.457379 12.963696 -21.111520 10.017612 1.654915 -13.482271 4.218023 -18.541209 22.956831 -11.361320 -11.558290 -0.258090 -8.933068 22.044477 -1.302295 -62.084043 27.796539 -7.062577 -65.465549 -41.961342 23.562435 -3.600418 3.103229 0.245670 0.074290 -0.217410 -0.130910 -16.474272 -4.104325 10.128133 19.060069 1.388031 -5.589041 -49.035182 -13.189794 7.422711 3.169275 -1.686769 -0.166630 -0.085730 0.144000 -0.213070 
-2.569600 17.765700 -3.301570 -3.332483 41.667297 8.167751 -15.843596 13.561635 3.992824 -8.807873 -3.545444 -25.752888 3.278560 2.248322 5.943612 -0.497063 1.855419 4.024623 -0.152230 -0.535600 0.094980 17.460212 -10.123199 3.617417 4.901198 2.927112 -15.924457 9.440154 -3.047287 3.318201 0.236700 -2.348852 3.767686 -0.308310 0.069550 0.067600 -2.297810 -3.319590 -8.694761 16.950735 -0.402924 24.537301 -5.908154 12.274871 -20.478818 9.667168 1.468266 -13.016151 3.988281 -18.547617 21.992329 -11.992890 -11.168080 -0.646400 -8.062660 22.276643 -1.375666 -61.094904 27.566330 -6.101695 -67.230742 -39.029474 22.694334 -3.639264 3.122895 0.233860 0.102950 -0.234380 -0.121180 -16.446476 -5.061082 9.377282 19.167023 1.650436 -5.657436 -52.520014 -13.540777 8.165744 3.132520 -1.747340 -0.182350 -0.063160 0.146350 -0.216280 
-2.550000 17.759960 -3.307360 -3.185969 42.386152 8.990926 -15.797036 13.457610 4.004318 -9.571090 -3.457504 -25.215989 3.566581 2.149918 4.595041 -0.543018 1.860154 4.051778 -0.140120 -0.507350 0.084330 17.523997 -10.138734 3.628659 5.116391 3.102141 -16.801145 9.130308 -2.924784 3.185628 0.265492 -2.298780 3.795782 -0.261160 0.121670 0.051740 -2.506537 -3.124825 -8.702344 18.471870 -1.019385 23.429339 -5.925664 11.311901 -19.604108 9.426451 1.189031 -12.579020 3.681758 -18.308230 21.046385 -11.953830 -10.977030 -0.872760 -7.540672 21.806512 -1.307863 -59.676013 26.702885 -4.866057 -70.427147 -36.951270 22.993513 -3.671531 3.152788 0.212340 0.139040 -0.266910 -0.103840 -16.428082 -5.329582 8.798529 19.727098 2.158764 -5.938381 -56.261527 -15.321736 9.668076 3.117807 -1.787172 -0.213200 -0.009760 0.153050 -0.210250 
-2.530940 17.760580 -3.307960 -2.718523 42.341704 9.997788 -15.793431 13.403030 4.047334 -10.366831 -3.495143 -24.879068 3.839121 2.053481 3.209129 -0.575514 1.867594 4.068371 -0.108870 -0.470850 0.101820 17.544505 -10.091152 3.610011 4.705842 3.214881 -17.339324 9.168415 -2.802934 2.766195 0.274008 -2.285261 3.795623 -0.215840 0.143070 0.052480 -2.543595 -3.151557 -8.729063 19.127451 -1.253421 22.985128 -6.128440 11.033272 -19.752548 9.448028 0.952812 -12.361549 3.422263 -18.260827 20.313859 -12.462740 -10.663320 -0.934250 -7.598113 21.573404 -1.360124 -56.857551 26.261958 -2.751049 -76.047492 -35.776624 25.157649 -3.667659 3.247478 0.197650 0.161890 -0.281670 -0.088350 -16.366345 -5.150466 8.461334 20.465996 2.354878 -6.185604 -60.338856 -17.480716 11.798217 3.116620 -1.845999 -0.227700 0.011850 0.142090 -0.212080 
-2.519600 17.748520 -3.317280 -2.342457 42.572906 10.650169 -15.775874 13.327857 4.069971 -11.230358 -3.520560 -24.669178 4.067231 2.008836 2.725727 -0.612615 1.877437 4.069229 -0.073930 -0.415690 0.104540 17.581461 -10.064395 3.603057 4.491978 3.266924 -17.626467 9.054265 -2.637856 2.101789 0.283708 -2.294497 3.782295 -0.156170 0.160710 0.052350 -2.636202 -3.089604 -8.731567 20.077116 -1.548262 22.556592 -6.371410 10.506704 -19.142938 9.479688 0.617764 -12.254404 3.134704 -18.509492 19.275803 -12.962490 -10.734970 -0.990050 -7.725491 20.433287 -1.155390 -54.814703 25.238193 -0.869592 -82.836477 -34.456400 27.654340 -3.668100 3.370407 0.165030 0.188090 -0.303140 -0.075550 -16.229043 -4.195636 8.231015 20.982704 2.323079 -6.865806 -64.823665 -21.046523 14.988909 3.125139 -1.915648 -0.232810 0.027230 0.137490 -0.207580 
-2.509150 17.731270 -3.329820 -2.283191 42.683774 10.790685 -15.747714 13.244110 4.077709 -11.951064 -3.577088 -24.516904 4.927569 1.888098 2.442521 -0.662615 1.893329 4.067688 -0.031080 -0.357930 0.116660 17.627555 -10.052819 3.585957 3.762630 3.223752 -17.284818 9.423917 -2.548409 1.277319 0.271108 -2.387577 3.737526 -0.091600 0.178260 0.055790 -2.765456 -2.980708 -8.725333 21.459063 -1.728359 22.072560 -6.474149 9.924473 -17.690015 9.636380 0.132767 -12.290764 2.646188 -18.720806 18.388795 -13.424000 -10.821350 -1.433420 -7.712737 18.527926 -0.798779 -54.381814 23.381276 0.039530 -86.858406 -33.868813 29.179726 -3.685956 3.448423 0.146350 0.211910 -0.319350 -0.061760 -16.374787 -2.432611 8.122316 21.451386 2.556333 -7.961618 -68.676994 -26.397882 19.479698 3.160614 -1.959690 -0.243520 0.048440 0.131680 -0.208240 
-2.501980 17.713950 -3.348320 -2.563016 43.085644 10.282588 -15.716866 13.189634 4.056872 -12.590070 -3.502298 -23.985558 6.319230 1.730801 2.387051 -0.676149 1.927304 4.059340 0.013370 -0.285370 0.114060 17.676419 -10.051548 3.567759 3.280510 3.102538 -16.615536 9.705655 -2.504578 0.684816 0.250970 -2.499103 3.685478 -0.028780 0.209130 0.066190 -2.921358 -2.877736 -8.694496 23.300215 -2.228075 21.827209 -6.502531 9.021855 -15.584169 9.856361 -0.545792 -12.391941 1.906165 -18.499740 17.471619 -12.859280 -10.953440 -2.158170 -7.459549 16.185384 -0.356590 -55.409649 20.785830 0.177049 -88.040415 -34.382866 30.002722 -3.719512 3.513447 0.108100 0.236800 -0.333510 -0.039020 -16.874524 -0.093066 8.034649 21.760412 3.755289 -9.340544 -72.430443 -32.829755 25.019455 3.240294 -1.984589 -0.235480 0.068010 0.123540 -0.187700 
-2.505310 17.704380 -3.369850 -2.293155 42.513221 9.652670 -15.737636 13.223805 4.045578 -13.292563 -3.423973 -23.182835 7.699529 1.614006 2.898087 -0.700920 2.001425 4.039440 0.065650 -0.211980 0.135950 17.668907 -9.978481 3.538841 2.279776 2.899143 -15.529673 10.565854 -2.512669 -0.042214 0.212234 -2.647080 3.631586 0.037440 0.224570 0.055940 -2.865967 -3.040810 -8.687216 23.723172 -2.478621 22.886127 -6.094645 8.720636 -13.861554 10.399596 -1.272409 -12.624689 0.984823 -18.259076 16.959013 -12.612820 -10.979470 -3.488750 -7.802161 14.095923 -0.073155 -56.223746 18.372219 0.832465 -91.251023 -36.088804 33.034855 -3.730454 3.556539 0.103690 0.244430 -0.335800 -0.018540 -17.271167 2.519745 8.014471 22.502642 4.920727 -10.921843 -76.856075 -37.111745 29.599994 3.288627 -2.006193 -0.248010 0.110410 0.106550 -0.185590 
